<svg xmlns="http://www.w3.org/2000/svg" viewBox="0 0 1200 630">
  <style>
    .bg { fill: #FAFAFA; }
    .grid { stroke: #E4E4E7; stroke-width: 0.6; }
    .gear { fill: #52525B; }
    .arrows { fill: #D4D4D8; }
    .title { fill: #27272A; font-family: 'Inter', 'Segoe UI', system-ui, -apple-system, 'Helvetica Neue', Arial, sans-serif; font-weight: 700; font-size: 72px; }
    .tagline { fill: #71717A; font-family: 'Inter', 'Segoe UI', system-ui, -apple-system, 'Helvetica Neue', Arial, sans-serif; font-weight: 400; font-size: 28px; }
  </style>
  <rect class="bg" width="1200" height="630"/>
  <line class="grid" x1="0" y1="0" x2="0" y2="630"/>
  <line class="grid" x1="30" y1="0" x2="30" y2="630"/>
  <line class="grid" x1="60" y1="0" x2="60" y2="630"/>
  <line class="grid" x1="90" y1="0" x2="90" y2="630"/>
  <line class="grid" x1="120" y1="0" x2="120" y2="630"/>
  <line class="grid" x1="150" y1="0" x2="150" y2="630"/>
  <line class="grid" x1="180" y1="0" x2="180" y2="630"/>
  <line class="grid" x1="210" y1="0" x2="210" y2="630"/>
  <line class="grid" x1="240" y1="0" x2="240" y2="630"/>
  <line class="grid" x1="270" y1="0" x2="270" y2="630"/>
  <line class="grid" x1="300" y1="0" x2="300" y2="630"/>
  <line class="grid" x1="330" y1="0" x2="330" y2="630"/>
  <line class="grid" x1="360" y1="0" x2="360" y2="630"/>
  <line class="grid" x1="390" y1="0" x2="390" y2="630"/>
  <line class="grid" x1="420" y1="0" x2="420" y2="630"/>
  <line class="grid" x1="450" y1="0" x2="450" y2="630"/>
  <line class="grid" x1="480" y1="0" x2="480" y2="630"/>
  <line class="grid" x1="510" y1="0" x2="510" y2="630"/>
  <line class="grid" x1="540" y1="0" x2="540" y2="630"/>
  <line class="grid" x1="570" y1="0" x2="570" y2="630"/>
  <line class="grid" x1="600" y1="0" x2="600" y2="630"/>
  <line class="grid" x1="630" y1="0" x2="630" y2="630"/>
  <line class="grid" x1="660" y1="0" x2="660" y2="630"/>
  <line class="grid" x1="690" y1="0" x2="690" y2="630"/>
  <line class="grid" x1="720" y1="0" x2="720" y2="630"/>
  <line class="grid" x1="750" y1="0" x2="750" y2="630"/>
  <line class="grid" x1="780" y1="0" x2="780" y2="630"/>
  <line class="grid" x1="810" y1="0" x2="810" y2="630"/>
  <line class="grid" x1="840" y1="0" x2="840" y2="630"/>
  <line class="grid" x1="870" y1="0" x2="870" y2="630"/>
  <line class="grid" x1="900" y1="0" x2="900" y2="630"/>
  <line class="grid" x1="930" y1="0" x2="930" y2="630"/>
  <line class="grid" x1="960" y1="0" x2="960" y2="630"/>
  <line class="grid" x1="990" y1="0" x2="990" y2="630"/>
  <line class="grid" x1="1020" y1="0" x2="1020" y2="630"/>
  <line class="grid" x1="1050" y1="0" x2="1050" y2="630"/>
  <line class="grid" x1="1080" y1="0" x2="1080" y2="630"/>
  <line class="grid" x1="1110" y1="0" x2="1110" y2="630"/>
  <line class="grid" x1="1140" y1="0" x2="1140" y2="630"/>
  <line class="grid" x1="1170" y1="0" x2="1170" y2="630"/>
  <line class="grid" x1="1200" y1="0" x2="1200" y2="630"/>
  <line class="grid" x1="0" y1="0" x2="1200" y2="0"/>
  <line class="grid" x1="0" y1="30" x2="1200" y2="30"/>
  <line class="grid" x1="0" y1="60" x2="1200" y2="60"/>
  <line class="grid" x1="0" y1="90" x2="1200" y2="90"/>
  <line class="grid" x1="0" y1="120" x2="1200" y2="120"/>
  <line class="grid" x1="0" y1="150" x2="1200" y2="150"/>
  <line class="grid" x1="0" y1="180" x2="1200" y2="180"/>
  <line class="grid" x1="0" y1="210" x2="1200" y2="210"/>
  <line class="grid" x1="0" y1="240" x2="1200" y2="240"/>
  <line class="grid" x1="0" y1="270" x2="1200" y2="270"/>
  <line class="grid" x1="0" y1="300" x2="1200" y2="300"/>
  <line class="grid" x1="0" y1="330" x2="1200" y2="330"/>
  <line class="grid" x1="0" y1="360" x2="1200" y2="360"/>
  <line class="grid" x1="0" y1="390" x2="1200" y2="390"/>
  <line class="grid" x1="0" y1="420" x2="1200" y2="420"/>
  <line class="grid" x1="0" y1="450" x2="1200" y2="450"/>
  <line class="grid" x1="0" y1="480" x2="1200" y2="480"/>
  <line class="grid" x1="0" y1="510" x2="1200" y2="510"/>
  <line class="grid" x1="0" y1="540" x2="1200" y2="540"/>
  <line class="grid" x1="0" y1="570" x2="1200" y2="570"/>
  <line class="grid" x1="0" y1="600" x2="1200" y2="600"/>
  <line class="grid" x1="0" y1="630" x2="1200" y2="630"/>
  <g transform="translate(220,155) scale(5)">
    <path class="gear" d="M 28.869141 3.1699219 L 26.070312 9.2597656 L 20.119141 11.730469 L 13.820312 9.4003906 L 9.4003906 13.820312 L 11.730469 20.119141 L 9.2597656 26.070312 L 3.1699219 28.869141 L 3.1699219 35.130859 L 9.2597656 37.929688 L 11.730469 43.880859 L 9.4003906 50.179688 L 13.820312 54.599609 L 20.119141 52.269531 L 26.070312 54.740234 L 28.869141 60.830078 L 35.130859 60.830078 L 37.929688 54.740234 L 43.880859 52.269531 L 50.179688 54.599609 L 54.599609 50.179688 L 52.269531 43.880859 L 54.740234 37.929688 L 60.830078 35.130859 L 60.830078 28.869141 L 54.740234 26.070312 L 52.269531 20.119141 L 54.599609 13.820312 L 50.179688 9.4003906 L 43.880859 11.730469 L 37.929688 9.2597656 L 35.130859 3.1699219 L 28.869141 3.1699219 z M 32 26.955078 A 5.0451202 5.0451202 0 0 1 37.044922 32 A 5.0451202 5.0451202 0 0 1 32 37.044922 A 5.0451202 5.0451202 0 0 1 26.955078 32 A 5.0451202 5.0451202 0 0 1 32 26.955078 z"/>
    <g class="arrows" transform="matrix(2.8992143,0,0,2.7453481,-51.302584,-2701.8443)">
      <path d="m 23.699931,999.17453 a 6,6 0 0 0 3.878189,2.60747 6,6 0 0 0 7.034686,-4.74317 l 0.813476,0.1581 -1.581075,-2.3448 -2.344961,1.5811 0.997741,0.1943 a 3.84375,3.84375 0 0 1 -4.508387,3.0399 3.84375,3.84375 0 0 1 -3.089298,-3.3938 l -1.198354,0.808 a 0.17817269,0.17817269 0 0 1 -0.237357,-0.03 0.17817269,0.17817269 0 0 1 -0.0099,-0.015 l -0.72939,-1.0816 a 6,6 0 0 0 0.974038,3.2229 z"/>
      <path d="m 33.765695,992.44493 a 5.9999999,5.9999999 0 0 0 -3.878189,-2.6075 5.9999999,5.9999999 0 0 0 -7.034686,4.7432 l -0.813475,-0.1581 1.581075,2.3448 2.34496,-1.5811 -0.997742,-0.1943 a 3.8437499,3.8437499 0 0 1 4.508388,-3.0399 3.8437499,3.8437499 0 0 1 3.089298,3.3938 l 1.198354,-0.808 a 0.17817269,0.17817269 0 0 1 0.237357,0.03 0.17817269,0.17817269 0 0 1 0.0099,0.015 l 0.72939,1.0816 a 5.9999999,5.9999999 0 0 0 -0.974038,-3.2229 z"/>
    </g>
  </g>
  <text class="title" x="570" y="290">repomatic</text>
  <text class="tagline" x="570" y="335">Automated repo maintenance and releases</text>
</svg>
