<svg xmlns="http://www.w3.org/2000/svg" viewBox="0 0 64 64">
  <style>
    .gear { fill: #52525B; }
    .arrows { fill: #D4D4D8; }
  </style>
  <path class="gear" d="M 28.869141 3.1699219 L 26.070312 9.2597656 L 20.119141 11.730469 L 13.820312 9.4003906 L 9.4003906 13.820312 L 11.730469 20.119141 L 9.2597656 26.070312 L 3.1699219 28.869141 L 3.1699219 35.130859 L 9.2597656 37.929688 L 11.730469 43.880859 L 9.4003906 50.179688 L 13.820312 54.599609 L 20.119141 52.269531 L 26.070312 54.740234 L 28.869141 60.830078 L 35.130859 60.830078 L 37.929688 54.740234 L 43.880859 52.269531 L 50.179688 54.599609 L 54.599609 50.179688 L 52.269531 43.880859 L 54.740234 37.929688 L 60.830078 35.130859 L 60.830078 28.869141 L 54.740234 26.070312 L 52.269531 20.119141 L 54.599609 13.820312 L 50.179688 9.4003906 L 43.880859 11.730469 L 37.929688 9.2597656 L 35.130859 3.1699219 L 28.869141 3.1699219 z M 32 26.955078 A 5.0451202 5.0451202 0 0 1 37.044922 32 A 5.0451202 5.0451202 0 0 1 32 37.044922 A 5.0451202 5.0451202 0 0 1 26.955078 32 A 5.0451202 5.0451202 0 0 1 32 26.955078 z"/>
  <g class="arrows" transform="matrix(2.8992143,0,0,2.7453481,-51.302584,-2701.8443)">
    <path d="m 23.699931,999.17453 a 6,6 0 0 0 3.878189,2.60747 6,6 0 0 0 7.034686,-4.74317 l 0.813476,0.1581 -1.581075,-2.3448 -2.344961,1.5811 0.997741,0.1943 a 3.84375,3.84375 0 0 1 -4.508387,3.0399 3.84375,3.84375 0 0 1 -3.089298,-3.3938 l -1.198354,0.808 a 0.17817269,0.17817269 0 0 1 -0.237357,-0.03 0.17817269,0.17817269 0 0 1 -0.0099,-0.015 l -0.72939,-1.0816 a 6,6 0 0 0 0.974038,3.2229 z"/>
    <path d="m 33.765695,992.44493 a 5.9999999,5.9999999 0 0 0 -3.878189,-2.6075 5.9999999,5.9999999 0 0 0 -7.034686,4.7432 l -0.813475,-0.1581 1.581075,2.3448 2.34496,-1.5811 -0.997742,-0.1943 a 3.8437499,3.8437499 0 0 1 4.508388,-3.0399 3.8437499,3.8437499 0 0 1 3.089298,3.3938 l 1.198354,-0.808 a 0.17817269,0.17817269 0 0 1 0.237357,0.03 0.17817269,0.17817269 0 0 1 0.0099,0.015 l 0.72939,1.0816 a 5.9999999,5.9999999 0 0 0 -0.974038,-3.2229 z"/>
  </g>
</svg>
